<svg xmlns="http://www.w3.org/2000/svg" viewBox="0 0 797.67 634.79"><defs><style>.cls-1,.cls-5{fill:none;}.cls-1,.cls-2,.cls-3,.cls-5{stroke:#003064;stroke-miterlimit:10;stroke-width:10px;}.cls-1,.cls-2{stroke-linecap:round;}.cls-2,.cls-3,.cls-4{fill:#fff;}</style></defs><g id="Ebene_2" data-name="Ebene 2"><g id="Ebene_1-2" data-name="Ebene 1"><line class="cls-1" x1="792.67" y1="369.78" x2="5" y2="369.78"/><path class="cls-2" d="M244,629.79s3.82-15,0-28.52,24.21-44.13,34.41-79.81,75.8,0,75.8,0,24.89,2.55,31.26-6.38,7.65-16.57,2.55-22.94-37-14-35.69-21.67-2.55-19.11,1.28-17.84,25,3.63,27.81-.1,10.42-12.65,6.6-25.39-43.33-35.69-43.33-35.69l7.64-5.1s15.17,6.38,25.43,0,19.1-13.56,13.41-25.26-46.48-28.27-46.48-28.27L186.62,301s-48.43,30.59-54.8,44.61S97.4,394,97.4,394s-21.66,29.32-21.66,34.41S59.17,473,57.89,490.87s-2.25,75.2-6.22,81.57S39.08,626,37,629.79"/><rect class="cls-3" x="140.74" y="108.5" width="220.5" height="463.94" rx="20.39"/><path class="cls-2" d="M98.68,442.43s36.59,10.55,54,44.15"/><path class="cls-4" d="M152.66,491.68C136.28,457.09,98,445.62,98,445.62L87.21,492.78l65.64,15.29Z"/><path class="cls-3" d="M247.8,441.16s10.2,14,12.75,19.12,20.39,11.47,28,5.1"/><path class="cls-2" d="M96.13,535.48s3.82-11.47,10.2-14,11.47-3.83,12.74-7.65S129.27,496,136.92,496s57.22-46,65-52.26c12.74-10.2,31.86-2.55,47.16-2.55,11.47,0,25.49-3.82,31.86,2.55s17.84,16.57-3.82,38.24-34.42,15.29-38.24,16.56-3.82,3.83-10.2,8.93c-4.1,3.28,2.55,12.74-3.82,19.11s-5.1,10.2-14,16.57-3.82,8.93-2.55,11.47,3.24,11.48-.29,17.85,1.43,27.85-15.07,34.95"/><rect class="cls-5" x="433.89" y="44.78" width="296.97" height="231.97" rx="19.25"/><path class="cls-5" d="M635.9,276.74h69.78a24.46,24.46,0,0,0,11.8-3,10.63,10.63,0,0,0-2.17-6.79L626,148.39a10.77,10.77,0,0,0-17.2,0l-44.55,59.14"/><path class="cls-5" d="M519.52,266.93l44.75-59.4-21.73-20.2a10.77,10.77,0,0,0-14.66,0L440,269.06a24.44,24.44,0,0,0,17.8,7.68h60.11A10.61,10.61,0,0,1,519.52,266.93Z"/><path class="cls-5" d="M484.87,137.82H546c4.82,0,9.9-.22,14.1-2.58,4.48-2.52,9.44-9-.15-18.55-12.44-12.35.8-13.06.8-22.21,0-15.29-15.29-16.57-26.13-12.74-17.07,6-18.84,16.13-23.44,16.35s-13.88-7.87-18.8,0-1.09,15.51-3.64,15.51-13-6-13.25,14.21C475.31,137.82,484.87,137.82,484.87,137.82Z"/><circle class="cls-5" cx="664.58" cy="102.13" r="26.77"/><path class="cls-5" d="M596.77,11l31.78,33.81H541.09l27.25-32.91A19,19,0,0,1,596.77,11Z"/><rect class="cls-5" x="177.7" y="216.84" width="146.57" height="113.43" rx="19.25"/><path class="cls-5" d="M316,325.82l-43.89-58.26a5.3,5.3,0,0,0-8.46,0l-21.89,29.07"/><path class="cls-5" d="M219,330.65a5.25,5.25,0,0,1,.8-4.83l22-29.19-10.68-9.93a5.29,5.29,0,0,0-7.21,0l-39.81,35.93"/><path class="cls-5" d="M202.74,262.72h30c2.37,0,4.87-.1,6.93-1.26s4.64-4.44-.07-9.12c-6.11-6.07.39-6.42.39-10.92,0-7.51-7.51-8.14-12.84-6.26-8.39,3-9.26,7.93-11.52,8s-6.82-3.87-9.24,0-.54,7.62-1.79,7.62-6.38-2.95-6.51,7A4.6,4.6,0,0,0,202.74,262.72Z"/><circle class="cls-5" cx="290.5" cy="244.24" r="13.38"/><path class="cls-5" d="M257.74,200.23l15.62,16.61h-43l13.4-16.17A9.32,9.32,0,0,1,257.74,200.23Z"/><path class="cls-5" d="M158.58,212.38l0-10.78a10.31,10.31,0,0,1,10.31-10.25h8.12"/><path class="cls-5" d="M179.61,350.67l-10.78-.05a10.31,10.31,0,0,1-10.25-10.31v-8.12"/><path class="cls-5" d="M342.12,332.19l-.05,9.5a10.3,10.3,0,0,1-10.3,10.25h-8.13"/><path class="cls-5" d="M322.36,188.8l9.51,0a10.3,10.3,0,0,1,10.25,10.3v8.13"/><line class="cls-5" x1="141.38" y1="395.28" x2="361.87" y2="395.28"/></g></g></svg>