<svg xmlns="http://www.w3.org/2000/svg" viewBox="0 0 623 495.21"><defs><style>.cls-1,.cls-5{fill:none;}.cls-1,.cls-2,.cls-3,.cls-5{stroke:#003064;stroke-miterlimit:10;stroke-width:5px;}.cls-1,.cls-2{stroke-linecap:round;}.cls-2,.cls-3,.cls-4{fill:#fff;}</style></defs><g id="Ebene_2" data-name="Ebene 2"><g id="Ebene_1-2" data-name="Ebene 1"><line class="cls-1" x1="620.5" y1="288.71" x2="2.5" y2="288.71"/><path class="cls-2" d="M190,492.71s3-11.76,0-22.38,19-34.62,27-62.62,59.47,0,59.47,0,19.53,2,24.53-5,6-13,2-18-29-11-28-17-2-15,1-14,19.65,2.84,21.82-.08,8.18-9.92,5.18-19.92-34-28-34-28l6-4s11.9,5,19.95,0,15-10.65,10.52-19.83S269,259.71,269,259.71l-124-25s-38,24-43,35-27,38-27,38-17,23-17,27-13,35-14,49-1.77,59-4.88,64-9.88,42-11.5,45"/><rect class="cls-3" x="109" y="83.71" width="173" height="364" rx="20.39"/><path class="cls-2" d="M76,345.71s28.71,8.27,42.35,34.64"/><path class="cls-4" d="M118.35,384.35C105.5,357.21,75.5,348.21,75.5,348.21l-8.5,37,51.5,12Z"/><path class="cls-3" d="M193,344.71s8,11,10,15,16,9,22,4"/><path class="cls-2" d="M74,418.71s3-9,8-11,9-3,10-6,8-14,14-14,44.9-36.12,51-41c10-8,25-2,37-2,9,0,20-3,25,2s14,13-3,30-27,12-30,13-3,3-8,7c-3.22,2.57,2,10-3,15s-4,8-11,13-3,7-2,9,2.55,9-.23,14,1.13,21.85-11.82,27.42"/><rect class="cls-5" x="339" y="33.71" width="233" height="182" rx="19.25"/><path class="cls-5" d="M497.5,215.71h54.75a19.1,19.1,0,0,0,9.25-2.37,8.33,8.33,0,0,0-1.69-5.33l-70.06-93a8.45,8.45,0,0,0-13.5,0L441.3,161.4"/><path class="cls-5" d="M406.19,208,441.3,161.4l-17.05-15.84a8.43,8.43,0,0,0-11.5,0l-69,64.12a19.2,19.2,0,0,0,14,6h47.16A8.33,8.33,0,0,1,406.19,208Z"/><path class="cls-5" d="M379,106.71h47.93c3.78,0,7.77-.17,11.06-2,3.51-2,7.41-7.08-.12-14.55-9.76-9.69.63-10.25.63-17.42,0-12-12-13-20.5-10-13.39,4.72-14.79,12.65-18.39,12.83s-10.89-6.18-14.75,0S384,87.71,382,87.71,371.82,83,371.6,98.85C371.5,106.71,379,106.71,379,106.71Z"/><circle class="cls-5" cx="520" cy="78.71" r="21"/><path class="cls-5" d="M466.8,7.19l24.93,26.52H423.11L444.49,7.89A14.89,14.89,0,0,1,466.8,7.19Z"/><rect class="cls-5" x="138" y="168.71" width="115" height="89" rx="19.25"/><path class="cls-5" d="M246.51,254.22,212.08,208.5a4.16,4.16,0,0,0-6.63,0l-17.18,22.81"/><path class="cls-5" d="M170.38,258a4.07,4.07,0,0,1,.63-3.78l17.26-22.91-8.38-7.79a4.16,4.16,0,0,0-5.66,0L143,251.71"/><path class="cls-5" d="M157.65,204.71H181.2a11,11,0,0,0,5.44-1c1.72-1,3.64-3.48-.06-7.15-4.8-4.76.31-5,.31-8.56,0-5.9-5.9-6.39-10.08-4.92-6.58,2.32-7.26,6.22-9,6.31s-5.35-3-7.25,0-.42,6-1.4,6-5-2.32-5.11,5.48A3.61,3.61,0,0,0,157.65,204.71Z"/><circle class="cls-5" cx="226.5" cy="190.21" r="10.5"/><path class="cls-5" d="M200.8,155.67l12.25,13H179.33L189.83,156A7.33,7.33,0,0,1,200.8,155.67Z"/><path class="cls-5" d="M123,165.21l0-8.46a8.07,8.07,0,0,1,8.08-8h6.38"/><path class="cls-5" d="M139.5,273.71l-8.46,0a8.08,8.08,0,0,1-8-8.08v-6.38"/><path class="cls-5" d="M267,259.21l0,7.45a8.08,8.08,0,0,1-8.08,8H252.5"/><path class="cls-5" d="M251.5,146.71l7.46,0a8.07,8.07,0,0,1,8,8.08v6.38"/><line class="cls-5" x1="109.5" y1="308.71" x2="282.5" y2="308.71"/></g></g></svg>